<svg
  xmlns="http://www.w3.org/2000/svg"
  viewBox="0 0 1102.98 774.01"
  class="icon icon--arrow">
  <path
    d="m659.13,609.79c24.84,71.12-27.51,143.11-87.47,164.22,4.24-6.8,8.19-12.91,11.94-19.14,17.29-28.82,31.01-59.06,35.46-92.74,6.31-47.83-2.6-92.12-30.85-132.04-10.8-15.26-22.66-29.43-37.06-42.54-6.01,6.6-12.13,12.88-17.73,19.59-15.38,18.41-28.51,38.26-37.7,60.54-19.63,47.57-17.2,95.01,1.14,142.25,8.55,22.02,19.84,42.64,33.24,62.09.26.38.32.9.5,1.42-55.28-18.24-109.8-84.63-86.25-164.58-6.21,5.14-11.48,9.97-17.21,14.17-29.13,21.38-60.97,29.86-96.23,18.31-25.51-8.36-41.51-26.32-47.69-52.31-6.13-25.77-3.01-50.31,13.56-71.87,12.74-16.58,29.18-28.05,49.83-32.56,29.28-6.39,57.14-3.14,82.72,13.45,4.1,2.66,7.81,5.91,12.33,9.37-10.29-.13-19.56-.78-28.76-.25-20.36,1.19-40.27,4.47-58.13,15.39-22.91,14-30.45,40.05-17.25,61.29,7.72,12.43,19.83,18.39,33.99,20.1,22.49,2.72,42.43-4.17,60.04-17.73,22.05-16.99,37.94-39.36,52.7-62.56,12.06-18.96,24.91-37.27,41.1-53.02.47-.45.81-1.04,1.79-2.32-5.06-3.02-9.9-6.1-14.9-8.87-34.95-19.36-72.61-27.05-112.27-25.28-47.33,2.11-90.44,16.96-128.93,44.59-18.88,13.56-34.54,30.57-49.32,48.44-22.04,26.64-38.19,56.49-49.68,89.44-1.16-.2-2.42-.33-3.64-.63-44.93-11.26-89.85-22.53-134.77-33.83-1.58-.4-3.47-.75-4.54-1.8-9.72-9.51-19.3-19.17-29.07-28.95C183.97,367.46,367.62,183.81,551.43,0c183.84,183.84,367.48,367.48,551.55,551.55-7.1,7.1-14.37,13.69-20.8,21.01-5.77,6.56-12.64,9.85-21.05,11.88-41.31,9.97-82.5,20.46-123.73,30.76-1.91.48-3.85.87-5.92,1.33-8.47-24.08-19.96-46.39-34.13-67.35-41.28-61.07-96.14-101.63-170.51-112.26-52.98-7.57-102.89.94-148.57,29.97-.68.43-1.29.99-2.15,1.66,4.13,4.53,8.02,9.05,12.19,13.3,13.41,13.64,22.48,30.26,32.4,46.35,15.41,25,34.04,47.3,59.38,62.74,19.9,12.12,41.46,16.34,64.5,9.09,30.15-9.49,35.12-47.18,16.06-67-12.48-12.98-28.24-18.79-45.18-22.43-17.5-3.76-35.16-5.11-53.02-2.82-.25-.42-.5-.83-.75-1.25,5.68-3.98,11.01-8.61,17.09-11.82,34.75-18.33,69.91-19.29,103.97.96,38.09,22.64,51.58,76.92,28.67,113.69-17.79,28.56-49.41,43.46-87.74,35.75-21.8-4.38-40.62-14.97-57.27-29.54-2.13-1.86-4.25-3.73-6.4-5.56-.2-.17-.58-.14-.88-.2Zm375.93-65.76c-161.72-161.72-322.8-322.8-483.77-483.77C390.13,221.43,229.23,382.33,67.89,543.67c31.05,9.45,61.48,18.71,92.25,28.08.85-1.62,1.64-3.03,2.35-4.47,12.92-26.15,29.15-50.16,47.52-72.74,18.46-22.69,41.29-40.24,65.98-55.65,17.13-10.69,35.45-18.72,54.16-25.96,19.68-7.61,30.61-21.99,33.9-42.46,3.55-22.06-.53-42.98-10.01-63-1.16-2.46-2.38-4.88-3.69-7.57,15.24-3.68,29.15-1.65,42.49,5.35,10.1,5.3,16.15,13.63,18.6,24.55,3.52,15.72,2.59,31.1-4.89,45.63-3.15,6.12-6.95,11.91-10.85,18.53,39.79-14.03,80.74-22.62,119.4-39.46-27.44-11.88-50.33-28.73-69.15-51.13-15.29-18.19-24.29-38.86-23.39-62.89.78-20.85,8.84-38.67,26.43-50.62,15.89-10.8,33.39-11.59,49.99-2.01,18.13,10.45,25.33,27.93,27.28,48.51-4.17-.13-7.8-.25-11.43-.35-3.62-.1-7.24-.18-10.71-.26-3.84-12.54-7.54-19.36-13.46-25-5.72-5.45-13.56-5.33-19.06.34-4.42,4.55-5.88,10.28-6.27,16.38-1.51,23.83,7.46,43.9,22.76,61.38,17.26,19.73,38.51,34.51,61.08,47.47,1.31.75,3.86.67,5.18-.12,17.38-10.43,34.18-21.7,49.01-35.66,16.76-15.77,30.17-33.59,34.67-56.82,1.81-9.37,1.31-18.59-2.94-27.28-5.77-11.78-17.72-13.22-25.32-2.64-4.09,5.7-6.65,12.48-10.04,18.7-.67,1.23-1.88,2.97-2.95,3.04-6.4.45-12.83.49-21.07.71,3.2-10,4.97-18.92,8.81-26.82,7.66-15.76,19.41-27.06,38.21-27.71,20.67-.72,36.62,8.26,47.97,25.2,11.4,17.01,11.56,35.75,6.4,54.66-9.32,34.1-31.34,58.71-60.29,77.58-8.89,5.8-18.71,10.18-29.58,16,40.5,13.12,80.05,25.93,119.6,38.75-.31-2.69-1.01-4.02-1.9-5.2-11.08-14.63-16.26-31.02-14.82-49.39.88-11.21,3.66-21.76,12.61-29.39,8.05-6.86,17.75-10.34,28.16-11.53,7.17-.82,14.4-.91,21.71,1.51-10.05,19.13-14.83,38.92-13.86,59.99.82,17.69,5.89,33.18,19.63,45.75,12.77,11.67,27.41,19.11,43.59,24.02,24.26,7.36,45.36,19.9,64.03,36.98,23.76,21.73,42.97,47.02,59.59,74.39,6.07,10.01,11.71,20.27,17.72,30.71,30.44-9.2,60.86-18.4,91.77-27.74Zm-618.43-132.55c.05.38.1.77.14,1.15,2.71-.09,5.41-.17,8.12-.26,42.07-1.4,81.56,7.64,117.25,30.33,7.03,4.47,11.37,4.69,18.46.1,36.8-23.84,77.73-32.32,121.13-30.42,1.79.08,3.56.5,5.34.76,0-.54.01-1.08.02-1.62-.77-.2-1.53-.4-2.3-.59-43.97-10.45-87.05-23.8-129.34-39.75-2.48-.93-5.92-.93-8.39,0-38.35,14.6-77.5,26.65-117.21,36.92-4.4,1.14-8.81,2.25-13.22,3.38Z" />
</svg>
