<svg
  xmlns="http://www.w3.org/2000/svg"
  viewBox="0 0 779.85 780.23"
  class="icon icon--corner">
  <path
    d="m424.83,507.34c-32.72,67.85-120.64,81.74-177.98,54.27,7.81-1.8,14.92-3.33,21.98-5.1,32.6-8.15,63.69-19.83,90.65-40.51,38.28-29.36,63.3-66.98,71.55-115.18,3.16-18.43,4.78-36.83,3.88-56.29-8.92.42-17.68.53-26.39,1.31-23.89,2.15-47.22,6.89-69.47,16.15-47.52,19.76-79.35,55.02-99.78,101.39-9.53,21.62-16.12,44.18-20.4,67.41-.08.45-.4.86-.65,1.36-26.2-51.99-17.8-137.48,55.39-177.36-8.03-.76-15.17-1.07-22.19-2.15-35.72-5.49-64.23-21.99-80.99-55.1-12.13-23.95-10.74-47.96,3.27-70.71,13.89-22.56,33.45-37.7,60.41-41.23,20.73-2.72,40.47.79,58.26,12.21,25.22,16.18,42.63,38.19,48.98,68,1.02,4.78,1.34,9.71,2.09,15.34-7.19-7.37-13.28-14.38-20.16-20.51-15.24-13.55-31.64-25.31-51.98-30.23-26.1-6.3-49.85,6.78-55.54,31.14-3.33,14.25,1.02,27.02,9.83,38.25,13.98,17.83,32.95,27.06,54.99,29.92,27.6,3.58,54.66-1.01,81.5-6.97,21.93-4.87,43.97-8.74,66.55-8.43.65,0,1.3-.16,2.9-.37-1.44-5.72-2.69-11.31-4.26-16.8-11.02-38.41-32.22-70.47-61.51-97.26-34.96-31.97-75.95-51.96-122.7-59.64-22.94-3.77-46.04-2.81-69.13-.62-34.42,3.26-66.95,12.93-98.37,28.11-.68-.96-1.48-1.94-2.12-3.02C49.61,125,25.81,85.27,2.04,45.51c-.84-1.4-1.92-2.98-1.94-4.48C-.05,27.43.01,13.83.01,0h779.84v780.01c-10.04,0-19.84-.48-29.56.14-8.72.56-15.9-1.97-23.29-6.49-36.26-22.16-72.8-43.86-109.24-65.73-1.69-1.01-3.33-2.11-5.13-3.24,11.04-23.01,18.69-46.91,23.49-71.76,14-72.38,3.88-139.84-41.19-199.95-32.1-42.82-73.42-72.09-126.25-83.86-.79-.18-1.61-.21-2.69-.35-.28,6.12-.73,12.07-.78,18.03-.17,19.13-5.5,37.29-9.86,55.69-6.78,28.57-9.38,57.52-2.38,86.35,5.5,22.65,17.76,40.87,39.18,52.04,28.03,14.61,58.19-8.53,58.73-36.02.36-18-6.68-33.26-16.09-47.81-9.71-15.03-21.25-28.47-35.49-39.48.12-.47.23-.94.35-1.42,6.82,1.2,13.87,1.69,20.44,3.73,37.53,11.61,63.08,35.8,72.84,74.2,10.92,42.94-17.92,90.86-60.12,100.66-32.77,7.61-65.66-4.21-87.32-36.76-12.31-18.51-18.14-39.3-19.61-61.39-.19-2.82-.37-5.64-.59-8.46-.02-.26-.31-.51-.48-.77Zm312.32,219.32V42.52H53.5c15.27,28.64,30.24,56.7,45.38,85.08,1.74-.54,3.3-.98,4.82-1.5,27.63-9.35,56.08-14.86,85.03-17.83,29.1-2.99,57.64.74,86,7.3,19.67,4.55,38.31,11.83,56.66,19.94,19.3,8.53,37.2,6.09,54-6.05,18.11-13.09,30.01-30.77,37.47-51.62.91-2.56,1.77-5.14,2.74-7.96,13.38,8.18,21.78,19.44,26.26,33.83,3.39,10.89,1.78,21.06-4.21,30.52-8.62,13.61-20.16,23.83-35.72,28.81-6.56,2.1-13.34,3.51-20.77,5.43,38.06,18.21,73.09,41.1,112.33,56.52-11-27.8-15.27-55.91-12.75-85.05,2.05-23.67,10.3-44.65,27.93-61.01,15.29-14.19,33.59-21.09,54.48-17.1,18.87,3.6,31.8,15.42,36.77,33.93,5.43,20.21-1.84,37.66-15.01,53.59-2.86-3.04-5.34-5.69-7.83-8.33-2.49-2.63-4.99-5.24-7.39-7.76,6.15-11.58,8.36-19.02,8.16-27.2-.19-7.89-5.82-13.36-13.72-13.24-6.34.1-11.43,3.11-16.01,7.15-17.92,15.78-25.76,36.31-27.31,59.5-1.74,26.15,2.82,51.63,9.63,76.76.4,1.46,2.26,3.21,3.75,3.58,19.67,4.91,39.51,8.82,59.87,9.44,23,.7,45.09-2.42,64.69-15.66,7.9-5.34,14.07-12.22,17.21-21.37,4.25-12.41-3.18-21.88-16.04-19.77-6.92,1.14-13.53,4.12-20.32,6.13-1.34.4-3.43.77-4.24.07-4.85-4.21-9.42-8.73-15.4-14.4,9.34-4.81,16.89-9.86,25.2-12.74,16.56-5.73,32.86-5.41,46.61,7.42,15.12,14.11,20.06,31.73,16.1,51.74-3.97,20.08-17.11,33.46-34.12,43.17-30.7,17.53-63.68,19.35-97.49,12.23-10.39-2.19-20.43-6.03-32.23-9.6,19.36,37.92,38.27,74.94,57.17,111.97,1.68-2.12,2.13-3.55,2.33-5.03,2.51-18.18,10.44-33.43,24.44-45.4,8.55-7.31,17.97-12.8,29.7-11.86,10.54.84,19.86,5.24,28.07,11.76,5.65,4.49,10.82,9.54,14.28,16.42-20.63,6.42-38.01,17.03-52.22,32.62-11.93,13.09-19.3,27.63-18.47,46.23.77,17.28,5.86,32.9,13.84,47.81,11.95,22.36,18,46.15,19.13,71.43,1.43,32.16-2.86,63.63-10.47,94.74-2.78,11.37-6.05,22.62-9.19,34.24,28.03,15.02,56.04,30.03,84.5,45.28ZM393.58,195.64c-.24.3-.47.61-.71.91,1.98,1.85,3.95,3.71,5.93,5.56,30.74,28.75,52.26,63.07,61.46,104.36,1.81,8.14,4.72,11.35,12.98,13.12,42.88,9.17,77.81,32.11,107.16,64.14,1.21,1.32,2.16,2.87,3.23,4.31.39-.38.78-.76,1.16-1.13-.4-.68-.8-1.37-1.21-2.04-23.71-38.48-44.73-78.38-63.35-119.57-1.09-2.41-3.53-4.85-5.94-5.93-37.45-16.8-73.64-35.96-108.99-56.78-3.92-2.31-7.82-4.64-11.73-6.96Z" />
</svg>
