<svg
  xmlns="http://www.w3.org/2000/svg"
  viewBox="0 0 506.13 514.95"
  class="icon icon--drip">
  <path
    d="m304.2,412.96c-2.01-8.1-4.05-14.93-5.75-20.24-2.48-7.76-4.95-12.97-8.15-19.16-1.7-3.29-4.43-6.33-7.36-8.65-8.12-6.44-17.16-4.31-20.28,5.5-3,9.42-4.12,19.42-6.27,29.13-1.18,5.33-2.36,10.73-4.32,15.79-2.07,5.34-6.5,7.62-10.94,6.76-4.91-.95-7.98-4.44-7.56-10.72.73-10.92,2.33-21.77,3.45-32.67.31-2.96.55-6.01.24-8.95-1.14-10.83-8.77-15.98-18.57-11.24-4.37,2.12-9.58,4.41-19.02,14.07-3.83,3.91-8.74,9.31-13.98,16.19.54-1.4,1.38-3.58,2.48-6.23,6.28-15.22,8.2-19.24,10.75-27.65,1.12-3.7.06-8.68-1.53-12.43-2.54-5.99-9.34-8.17-15.71-5.31-5.27,2.36-10.16,5.61-15.08,8.68-13.88,8.67-21.62,6.4-28.11-8.62-4.71-10.9-2.35-15.96,8-21.93,5.54-3.19,11.92-4.94,17.91-7.34,4.93-1.97,6.23-5.19,4.11-10.15-1.66-3.89-4.14-7.09-7.19-9.49-6.25-4.91-13.67-4.6-21.21-4.51-3.76.05-9.08.44-15.36,2.04,8.4-3.17,14.44-7.14,18.26-10.06,9.19-6.99,10.65-11.78,11.17-13.62,2.03-7.15-1.01-11.66-8.4-11.55-6.14.09-12.26.86-18.39,1.33-13.69,1.05-19.57-5.43-17.1-18.99.77-4.23,1.71-8.47,2.98-12.57,1.98-6.39,6.1-8.8,12.63-7.31,4.19.95,8.25,2.51,12.36,3.82,2.37.76,4.69,1.75,7.11,2.29,4.57,1.01,9.87,2.25,12.97-1.97,3.39-4.61,3.82-10.58.09-15.41-2.61-3.38-4.76-6.09-12.02-12.48-1.64-1.44-3.74-3.27-6.2-5.39,5.98,3.17,11.21,4.08,14.47,4.36,12.78,1.12,23.42-4.85,27.58-10.28,3.13-4.09,2.21-7.6-2.46-10.36-4.57-2.7-9.5-4.78-14.12-7.41-10.87-6.18-11.87-12.46-3.48-21.61,3.33-3.63,6.78-7.16,10.38-10.52,4.74-4.42,10.3-4.24,14.43.79,2.61,3.17,4.46,6.96,6.57,10.53,2.45,4.13,4.41,8.64,7.32,12.41,2.11,2.74,4.82,4.09,7.53,4.2,4.84.19,8.47-4.9,9.62-6.5,6.44-8.9,3.77-17.93,5.25-41.62.31-4.98.7-8.98.95-11.33.73,3.06,1.15,6.24,2.24,9.17,3.5,9.44,6.72,19.04,11.08,28.09,2.77,5.76,7.87,9.91,14.96,10.2,5.72.23,7.71-1.2,7.98-6.92.25-5.29-.27-10.62-.43-15.94-.18-5.81-.49-11.63-.46-17.44.05-8.07,8.04-16.4,16.38-16.01,1.99.09,3.99-.05,5.98.06,15.12.87,20.74,8.02,18.01,23.05-1.54,8.49-3.44,16.92-4.85,25.43-.84,5.08-.53,10.15,4.72,13.12,5.96,3.36,16.06,3.31,19.89-.49,1.61-1.6,1.84-2.83,3.48-6.95,1.64-4.12,4.12-9.54,7.87-15.7-2.15,4.57-2.45,8.22-2.35,10.66.27,6.58,3.61,8.29,4.44,17.22.21,2.3.43,3.86.84,6.79.4,2.83,1.94,5.69,3.56,8.14,4.33,6.56,10.27,6.3,14.73-.21,3.94-5.75,7.84-11.6,12.41-16.83,1.77-2.02,5.36-3.42,8.11-3.4,5.16.05,12.99,8.2,14.35,13.94,1.52,6.4-2.08,10.48-6.73,13.84-4.71,3.41-9.75,6.37-14.41,9.85-8.69,6.49-8.99,13.26-.89,20.65,7.55,6.89,16.89,8.12,26.59,7.42,5.46-.4,10.87-1.37,16.32-1.96.08,0,1.2-.13,2.7.01.83.08,3.41.34,3.52,1.08.07.48-.95.83-4.35,2.87-.9.54-1.05.65-1.53.93-8.46,4.94-17.12,9.56-25.34,14.86-3.54,2.28-6.73,5.57-9.15,9.04-5.31,7.59-2.29,16.07,6.66,18.32,6.73,1.69,13.78,2.04,20.64,3.27,8.05,1.44,11.35,6.03,9.91,13.23-.96,4.84-3.97,7.65-9.05,7.53-4.46-.1-8.9-.91-13.35-1.42-1.15-.13-2.29-.44-3.45-.51-6.39-.4-13.13-1.14-16.66,5.87-2.87,5.71-4,11.85-1.78,17.21,1.04,2.52,2.54,4.15,3.5,5.15,7.77,8.12,20.09,15.27,26.1,18.55-9.43-2.51-16.85-4.71-21.73-6.2-7.17-2.19-14.06-3.21-22.99-3.58-7.97-.33-12.57,6.47-9.64,13.99,2.01,5.17,5.39,9.84,8.43,14.57,3.13,4.89,6.94,9.37,9.81,14.39,3.37,5.9,2.48,10.28-1.86,13.85-4.55,3.74-9.31,3.87-14.45-.46-4.05-3.41-7.43-7.6-11.22-11.32-3.66-3.61-7.11-7.58-11.29-10.48-8.34-5.78-16.47-2.56-19.16,7.24-2.16,7.89-2.96,14.77-.37,35.69.6,4.89,1.35,10.58,2.27,16.92Z" />
  <path
    d="m396.39,155.06c12.84-9,26.04-14.38,39.53-16.46,3.95-.61,27.7-4.26,52.21,7.26,7.55,3.55,16.36,7.84,17.8,15.91,1.14,6.38-2.68,13.14-7.23,16.94-12.06,10.08-37.57,6.38-51.41-6.7-7.4-7-8.4-13.78-18.04-17.72-7.31-2.99-15.22-2.56-17.93-2.4-6.38.36-11.51,1.89-14.93,3.17Z" />
  <path
    d="m101.06,63.72c2.38,0,6.27.5,14.6,6.27,0,0,4.27,3.02,10,8.78,0,0,9.09,8.99,18.74,25.22.23.39.82,1.4,1.33,2.84.93,2.67,1.77,7.44-.11,10.06-2.07,2.88-7.15,3.33-10.82,2.25-16.2-4.78-32.26-10.09-48.14-15.84-6.24-2.26-10.58-7.21-9.96-14.58.57-6.67,2.31-12.84,6.67-17.37,2.25-2.35,4.55-3.54,6.01-4.32,1.32-.71,6.26-3.29,11.69-3.29Z" />
  <path
    d="m241.14,514.72c-10.18-1.7-18.72-14.44-20.02-26.42-.65-5.97,1.26-12.92,6.88-26.09,1.02-2.4,4.08-10.74,11.09-19.22,4.71-5.7,7.09-6.58,8.91-6.35,2.57.32,4.63,2.93,7.19,8.89,7.9,18.4,2.42,28.61,8.09,42.98.51,1.29,1.84,4.47,1.71,8.72-.05,1.79-.29,7.05-4.21,11.46-3.49,3.93-7.9,4.94-10.78,5.6-.51.12-4.91,1.09-8.87.43Z" />
  <path
    d="m277.42,17.6c-.01-4.57.21-8.96,3.27-12.34,1.29-1.42,2.54-2.25,3.92-2.84,7.82-3.32,15.98-3.68,23.18,1.86,5.97,4.59,8.23,11.13,6.27,18.24-3.22,11.71-9.16,22.11-18.05,30.51-3.43,3.24-6.36,4.52-8.69,3.79-2.48-.77-3.66-3.74-4.85-7.41-4.21-13.06-5.04-23.26-5.06-31.81Z" />
  <path
    d="m398.49,428.41c-3.95.02-6.76-2.45-10.01-5.29-6.86-6-8.56-13.19-10.58-21.71-.94-3.96-1.04-6.17.21-7.5,1.44-1.51,4.17-1.78,7.8-.46,8.02,2.93,15.69,6.89,23.32,10.78,2.67,1.35,3.2,3.19,3.76,4.97,2.32,7.49-5.94,19.18-14.5,19.22Z" />
  <path
    d="m114.98,346.58c.16,0,.32,0,.5.02,3.11.17,7.23,1.44,8.05,3.4.78,1.88-1.65,3.95-4.84,8.04-7.94,10.16-6.66,14.88-13.04,18.38-1.37.75-4.41,2.37-8.23,1.92-6.39-.74-12.2-6.84-12.54-13.47-.21-4.14,1.76-7.34,2.39-8.34,2.01-3.17,4.66-4.78,5.94-5.45,0,0,9.58-4.7,21.78-4.51Z" />
  <path
    d="m124.56,178.2c-.72,3.77-23.62,2.14-32.97,1.17-13.02-1.36-32.68-4.89-32.58-8.6.03-.97,1.4-1.76,3.99-2.75,17.35-6.61,35.63-1.56,39.44-.45,6.98,2.02,22.75,7.42,22.13,10.63Z" />
  <path
    d="m438.5,262.72c5.82-4.04,16.77-10.38,31.56-11.87,12.52-1.27,21.09,1.62,27.87,3.9,4.31,1.45,7.2,2.9,7.19,4.54-.02,2.33-5.91,4.02-7.58,4.5-12.96,3.72-22.24-1.1-36.8-2.3-4.98-.41-12.62-.57-22.24,1.24Z" />
  <path
    d="m421.91,342.71c.36-2.06,13.82-1.95,24.98-.26,1.74.26,23.24,3.73,34.74,16.06,3.31,3.55,2.87,4.69,2.71,4.98-.95,1.74-6.89.09-11.82-1.2-2.43-.64-35.96-9.43-49.33-18.1-.49-.32-1.39-.92-1.29-1.48Z" />
  <path
    d="m372.3,55.83c2.31,1.56-1.28,10.57-1.88,12.07-4.95,12.41-13.08,15.84-21.66,27.44-2.9,3.93-6.76,10-9.89,18.62-.03-8.06,1.13-21.4,8.87-34.8,7.83-13.55,21.42-25.45,24.56-23.33Z" />
  <path
    d="m176,404.33c-10.87,18.12-15.32,27.56-17.14,32.83-.13.36-.47,1.38-1.06,2.75-.83,1.94-4.07,8.11-11,14.78-2.05,1.97-5.84,5.57-7.7,4.55-1.91-1.04-.83-6.42-.31-8.91,4.18-20.11,19.63-33.95,37.22-46Z" />
  <path
    d="m109.71,277.38c-5.24-.75-10.53-1.28-15.73-2.29-6.67-1.29-10.18-.67-14.75.56-2.16.58-9.39,2.61-14.72,9.02-2.36,2.85-3.28,5.26-3.98,6.69-5.88,11.97-29.88,22.08-46.63,13.92C13.15,304.91.01,298.3,0,287.77c0-7.13,5.71-12.62,9.59-15.26,10.42-7.11,22.34-10.02,34.65-11.6,23.83-3.06,45.82,1.69,65.48,16.46Z" />
</svg>
