<svg
  xmlns="http://www.w3.org/2000/svg"
  viewBox="0 0 733.55 800"
  class="icon icon--veer">
  <path
    d="m40.22,766.51l10.68-42.64-29.44-11.62-20.22,33.33s11.15,30.24-1.23,54.42c0,0,15.51-26.39,40.22-33.48Zm-19.78-19.57c3.62-1.48,7.8.21,9.3,3.77,1.51,3.56-.21,7.66-3.83,9.14-3.62,1.48-7.8-.21-9.3-3.77-1.52-3.57.2-7.67,3.83-9.14Z" />
  <path
    d="m349.12,271.92c-84.79,69.54-195.78,212.78-289.92,380.1l-.05-.07-16.45,29.04,17.55,6.75,9.27-24.43c50.22-90.52,186.46-326.92,435.57-483.99,0,0,92.74-55.24,184.12-131.63-22.25,18.6-66.14,41.91-89.93,56.94-62.46,39.46-139.53,76.55-250.15,167.28Z" />
  <path
    d="m46.93,520c-19.28,68.14-18.18,120.04-10.72,134.31h11.66c32.2-66.7,187.3-308.32,283.83-383.94,100.02-78.36,177.17-123.96,242.06-157.21,22.79-11.67,46.16-27.49,67.24-43.34,25.6-20.19,51.54-41.78,74.27-62.91l-65.86,43.19,29.37-44.91-56.06,57.01L659.2,0c-86.31,7.79-166.4,50.97-166.4,50.97-32.04,38.01-57.85,98.47-57.85,98.47-.89-30.23,19.58-76.01,19.58-76.01-15.13,6.91-72.61,39.74-72.61,39.74-28.12,23.32-36.85,84.65-36.85,84.65-5.35-24.19,13.34-70.82,13.34-70.82-80.99,46.65-138.84,126.11-138.84,126.11-40.04,78.6-7.12,139.93-19.58,125.25s-9.78-68.24-9.78-68.24c-84.55,81.2-93.44,120.06-93.44,120.06-14.24,34.55-26.7,126.98-26.7,126.98-8.01-8.64,0-57.01,0-57.01-20.47,43.19-10.68,83.79-10.68,83.79-9.78-3.46-12.46-63.93-12.46-63.93Z" />
  <path
    d="m715.29,34.26s-32.55,31.55-74.27,62.91c-65.39,51.57-128.35,93.73-128.35,93.73-246.64,145.74-384.08,383.59-429.5,465.14h24.15c8.54-6.84,21.35-12,74.88-27.5,67.63-19.58,107.98-60.46,107.98-60.46,0,0-61.7,34.55-90.77,31.1s-68.14,7.48-68.14,7.48c0,0-14.92-6.91,58.65-17.85s194.6-93.28,194.6-93.28c0,0-46.28,19-67.63,17.27-21.35-1.73-74.16,0-74.16,0,35-8.06,67.63-3.45,121.03-23.61,53.4-20.16,50.43-18.43,50.43-18.43,60.51-20.16,85.65-82.92,85.65-82.92-10.47,4.03-90.41,13.82-123.56,4.03-33.16-9.78-89.66,0-89.66,0,53.4-17.85,65.27-9.78,78.31-10.36,13.05-.58,55.18,2.88,138.84-25.91s107.39-64.49,107.39-64.49l-56.42,7.54c36.84-6.2,78.36-30.57,78.36-30.57-25.52,6.91-65.27,10.36-65.27,10.36,46.87-10.36,72.98-24.76,72.98-24.76,43.9-33.4,53.99-82.92,53.99-82.92-62.3,21.3-111.54,11.52-111.54,11.52,85.44-5.75,109.17-27.64,121.03-32.82,11.87-5.19,16.76-26.63,16.76-26.63-43.17,15.55-92.11,18.14-92.11,18.14,52.95-8.21,98.32-34.99,98.32-34.99v-26.81c-20.47,11.66-56.5,20.74-56.5,20.74l56.06-36.27c3.15-18.15-11.53-29.37-11.53-29.37Z" />
  <polygon
    points="23.64 701.58 56.98 714.94 63.19 700.18 29.85 686.83 23.64 701.58" />
  <path
    d="m394.23,689.24c-110.17,52.96-216.01,89.07-356.76,93.79-13.13.45-13.2,13.58,0,13.13,125.92-4.23,230.69-31.29,331.73-78.65,112.56-52.77,215.94-96.98,356.93-112.01,13-1.39,7.47-14.04-5.44-12.66-124.86,13.32-226.31,48.25-326.46,96.39Z" />
</svg>
